<svg xmlns="http://www.w3.org/2000/svg" width="80.385" height="51.12" viewBox="0 0 80.385 51.12">
  <g id="Group_871" data-name="Group 871" transform="translate(-72.732 0)">
    <g id="Group_870" data-name="Group 870" transform="translate(72.732 0)">
      <g id="Group_869" data-name="Group 869" transform="translate(0)">
        <g id="Group_868" data-name="Group 868">
          <g id="Group_865" data-name="Group 865" transform="translate(0 12.772)">
            <g id="Group_861" data-name="Group 861" transform="translate(0 0.208)">
              <g id="Group_860" data-name="Group 860">
                <g id="Group_859" data-name="Group 859">
                  <g id="Group_858" data-name="Group 858">
                    <path id="Path_2294" data-name="Path 2294" d="M80.482,336.218c-.019,0-1.946-.024-4.209-.117s-4.248-.219-4.268-.22l-.475-.031-.049-.473c0-.04-.414-4.012-.5-6.945,0-1.486.042-3.259.084-4.652a36.2,36.2,0,0,0-1.194,3.728c-1.518,5.581-1.532,7.531-1.532,7.55v.6l-.6-.039s-1.427-.1-3-.217-2.69-.236-2.7-.237l-.3-.032-.14-.268a43.785,43.785,0,0,1-2.054-4.884c-.313-.859-.6-1.8-.843-2.708.106,2.338.757,6.938.764,6.989l.1.715-4.492-.476-.049-.015a1.849,1.849,0,0,1-1.213-1.4,35.012,35.012,0,0,1-.723-8.639A27.7,27.7,0,0,1,54.3,316.54l.039-.122a2.034,2.034,0,0,1,1.972-1.481l.1-.009c.17-.019.339-.048.536-.08.37-.061.83-.138,1.547-.207,1.862-.175,2.829-.3,2.839-.3l.559-.071.071.559c0,.019.249,1.941,1.058,5.468.231.977.451,1.756.639,2.353a24.021,24.021,0,0,1,1.551-3.939,45.339,45.339,0,0,1,2.175-4.1c.117-.2.219-.367.313-.534l.141-.25.285-.033c.023,0,2.313-.266,6.146-.451,2.953-.118,5.478-.127,6.181-.127l.8,0-.048.605c-.007.087-.7,8.753-.7,11.812,0,2.969.539,9.9.544,9.973l.048.614Zm36.589-.741c-1.674,0-4.1-1.123-4.1-3.153,0-.277.011-.817.027-1.564.032-1.516.08-3.806.08-6.147,0-2.4-.119-4.753-.2-6.307-.038-.756-.066-1.3-.066-1.584a2.761,2.761,0,0,1,.734-2.053,3.257,3.257,0,0,1,2.405-.867h.112c1.049.02,2.359.123,3.746.231.658.051,1.329.1,1.989.148l.822.075c4.1.374,6.591.651,7.228.964a2.612,2.612,0,0,1,1.429,1.357,15.853,15.853,0,0,1,1.043,5.7l-.005.568-5.992-.112-.019-.533c-.031-.782-.307-1.747-.605-1.77l-.025,0-.025,0a24.4,24.4,0,0,0-2.692-.172c-.179,0-.337,0-.467.012.006.081.012.173.019.272.07,1,.2,2.867.173,4.288,0,.919-.173,3.2-.272,4.258.388-.014.8-.021,1.2-.028a17.178,17.178,0,0,0,2.309-.126c.273-.046.286-.105.308-.213l0-.014c.06-.574.078-1.5.078-1.506l.011-.553h6.006l.011.552a28.673,28.673,0,0,1-.2,3.952c-.368,2.658-1.607,3.152-2.892,3.29l-.055.006c-3.105.338-7.043.678-11.7,1.012A3.187,3.187,0,0,1,117.072,335.476Z" transform="translate(-52.523 -312.654)" fill="#0055a5"/>
                    <path id="Path_2295" data-name="Path 2295" d="M75.71,309.038h.19s-.7,8.74-.7,11.857c0,3.025.546,10.017.546,10.017s-1.911-.023-4.192-.116-4.254-.219-4.254-.219-.411-3.957-.5-6.9c0-2.937.165-6.984.165-6.984s-.942.625-2.382,5.928c-1.572,5.778-1.552,7.7-1.552,7.7s-1.425-.1-3-.217-2.685-.235-2.685-.235a43.578,43.578,0,0,1-2.023-4.816,53.494,53.494,0,0,1-1.885-7.319s-.152,2.474-.066,4.237c0,2.112.784,7.634.784,7.634l-3.722-.394a1.284,1.284,0,0,1-.821-.978,34.469,34.469,0,0,1-.711-8.526,26.687,26.687,0,0,1,1.232-7.86,1.539,1.539,0,0,1,1.6-1.1c.486-.055.971-.18,2.071-.286,1.894-.178,2.856-.3,2.856-.3s.242,1.92,1.068,5.523a22.084,22.084,0,0,0,1.25,4.038,30.869,30.869,0,0,1,1.99-5.494,48.514,48.514,0,0,1,2.477-4.614s2.25-.261,6.108-.448c2.944-.117,5.46-.126,6.154-.126m35.505.584h.1c1.531.03,3.675.24,5.709.378,1.946.183,7.081.612,7.84.983a2.011,2.011,0,0,1,1.154,1.061,15.41,15.41,0,0,1,1,5.481l-4.891-.091s-.081-2.23-1.124-2.311a24.7,24.7,0,0,0-2.787-.18,6.466,6.466,0,0,0-.707.031c-.2.025-.34.3-.338.34.047.763.237,3.07.206,4.755,0,.985-.208,3.644-.3,4.5-.03.306.228.345.363.345a.583.583,0,0,0,.079,0c1.317-.056,3.009-.018,3.769-.172.688-.115.721-.544.756-.688.066-.6.084-1.586.084-1.586h4.9a28.438,28.438,0,0,1-.2,3.859c-.348,2.517-1.49,2.714-2.395,2.811s-4.592.505-11.756,1.018a2.561,2.561,0,0,1-.358.023c-1.364,0-3.534-.895-3.534-2.59,0-.828.107-4.221.107-7.711,0-3.581-.263-7.065-.263-7.891-.038-1.364.789-2.357,2.575-2.357m-35.505-1.71c-.706,0-3.24.009-6.2.127-3.861.187-6.1.444-6.193.455l-.57.066-.282.5c-.089.158-.189.327-.306.522a45.815,45.815,0,0,0-2.193,4.133,18.281,18.281,0,0,0-1,2.289q-.07-.278-.142-.582c-.8-3.484-1.044-5.386-1.047-5.405l-.142-1.118-1.118.142c-.009,0-.971.123-2.819.3-.74.072-1.21.15-1.588.212-.2.033-.357.059-.506.076l-.079.007a2.577,2.577,0,0,0-2.463,1.869l-.039.122a28.179,28.179,0,0,0-1.245,8.039v.043a35.461,35.461,0,0,0,.735,8.754,2.391,2.391,0,0,0,1.6,1.83l.1.029.1.011,3.722.394,1.437.152-.2-1.431c0-.022-.129-.913-.278-2.1.773,1.925,1.325,2.987,1.355,3.044l.28.536.6.063c.046,0,1.147.12,2.717.238s2.994.216,3.008.217l1.216.083-.013-1.219a36.052,36.052,0,0,1,1.512-7.393l.007-.025c0,.268,0,.531,0,.786v.032c.084,2.955.484,6.824.5,6.988l.1.946.949.061c.02,0,2.006.129,4.282.221s4.2.117,4.224.117l1.232.015-.1-1.229c-.005-.069-.543-6.982-.543-9.929,0-3.037.688-11.681.7-11.767l.1-1.211-1.215-.005Zm35.505.584a3.748,3.748,0,0,0-2.809,1.038,3.318,3.318,0,0,0-.893,2.462c0,.3.029.846.066,1.6.078,1.548.2,3.888.2,6.278,0,2.335-.048,4.621-.08,6.135-.016.751-.027,1.293-.027,1.576,0,2.425,2.706,3.716,4.66,3.716a3.768,3.768,0,0,0,.472-.029c4.661-.334,8.6-.675,11.708-1.013l.056-.006c.869-.093,2.909-.311,3.388-3.776a29.23,29.23,0,0,0,.208-4.036l-.022-1.1h-7.11l-.021,1.105c0,.008-.013.675-.053,1.211-.457.067-1.321.082-2.092.1l-.576.011c.1-1.167.218-2.888.219-3.677.023-1.3-.081-2.957-.152-4.008.9.009,2.017.1,2.381.151a3.635,3.635,0,0,1,.269,1.257l.044,1.06,1.061.023,4.891.092,1.136.021.011-1.137a16.5,16.5,0,0,0-1.084-5.914,3.158,3.158,0,0,0-1.708-1.653c-.643-.315-2.447-.562-7.42-1.016l-.805-.074H117.1c-.656-.044-1.331-.1-1.983-.148-1.4-.109-2.714-.212-3.779-.233Z" transform="translate(-47.781 -307.912)" fill="#fff"/>
                  </g>
                </g>
              </g>
            </g>
            <g id="Group_864" data-name="Group 864" transform="translate(30.3)">
              <g id="Group_863" data-name="Group 863">
                <g id="Group_862" data-name="Group 862">
                  <path id="Path_2296" data-name="Path 2296" d="M346.13,334.566a28.313,28.313,0,0,1-4.266-.136,3.486,3.486,0,0,1-2.571-2.3,42.427,42.427,0,0,1-.759-9.718,48.542,48.542,0,0,1,.655-8.381c.465-2.724,2.523-2.755,2.611-2.755.014,0,1.865-.02,4.417-.02,2.187,0,4.226.015,6.06.043,3.132.05,8.545.15,9.609.257,2.556.251,3.1,1.614,3.19,2.4a42.092,42.092,0,0,1,.458,6.226l-.025.537h-9.07v-.563c0-.013,0-1.315-.067-2.419-.011-.179-.024-.4-.632-.4h-6.384c-.03.938-.084,3.014-.08,5.564,0,2.5.078,4.348.122,5.2.915.009,2.858.026,4.487.026,1.214,0,2.029-.009,2.424-.027.048-.363.085-1.138.1-2.161a.566.566,0,0,1,.564-.6h.563v0l7.94-.015-.006.57a42.238,42.238,0,0,1-.5,6.365,2.546,2.546,0,0,1-2.565,1.892c-.053,0-.352.016-.7.033-1.421.073-4.747.244-8.588.31C350.278,334.543,347.925,334.566,346.13,334.566Z" transform="translate(-337.962 -310.695)" fill="#0055a5"/>
                  <path id="Path_2297" data-name="Path 2297" d="M341.477,307.078c1.783,0,3.921.01,6.051.043,4.475.072,8.675.165,9.561.254,2.071.2,2.6,1.175,2.687,1.91a41.9,41.9,0,0,1,.455,6.132h-7.97s0-1.318-.068-2.452a1.028,1.028,0,0,0-1.194-.932h-6.928s-.1,2.593-.1,6.128.153,5.756.153,5.756,2.785.031,5.019.031c1.117,0,2.1-.008,2.522-.031a.562.562,0,0,0,.447-.39c.1-.6.123-2.366.124-2.366v0l7.934-.015a42.492,42.492,0,0,1-.487,6.243,1.982,1.982,0,0,1-2.016,1.457c-.277,0-4.356.259-9.3.343-2.461.039-4.966.069-6.984.069a36.652,36.652,0,0,1-4.143-.122,2.933,2.933,0,0,1-2.176-1.971,43.76,43.76,0,0,1-.713-9.485A47.527,47.527,0,0,1,335,309.4c.382-2.275,1.989-2.3,2.058-2.3h0s1.836-.02,4.414-.02m0-1.126c-2.48,0-4.3.019-4.421.02-.154,0-2.618.069-3.16,3.212a49.642,49.642,0,0,0-.665,8.476,42.047,42.047,0,0,0,.8,9.93A4.068,4.068,0,0,0,337,330.238a24.774,24.774,0,0,0,4.385.149c1.8,0,4.154-.023,7-.069,3.852-.066,7.186-.237,8.609-.31.317-.016.617-.032.677-.033a3.085,3.085,0,0,0,3.1-2.322,42.705,42.705,0,0,0,.518-6.492l.013-1.141-1.141,0-7.307.014h-1.076l-.326.311a1.144,1.144,0,0,0-.35.841c-.014.724-.036,1.258-.059,1.623-.387.007-.984.013-1.907.013-1.358,0-2.935-.012-3.95-.021-.043-.974-.1-2.586-.1-4.64,0-2.13.034-3.925.063-5H351l.077,0c.058,1.058.058,2.244.058,2.256v1.126h10.171l.051-1.073a42.619,42.619,0,0,0-.462-6.324c-.091-.766-.635-2.593-3.694-2.893-1.028-.1-5.817-.2-9.654-.26-1.837-.029-3.879-.043-6.069-.043Z" transform="translate(-333.221 -305.952)" fill="#fff"/>
                </g>
              </g>
            </g>
          </g>
          <g id="Group_867" data-name="Group 867" transform="translate(10.278)">
            <g id="Group_866" data-name="Group 866">
              <path id="Path_2298" data-name="Path 2298" d="M163.825,217.287c.1.292,0,.774.1,1.066a2.59,2.59,0,0,0,.58.966c.289.388.582.292.871.68.194.292.1.292,0,.483s-.482.293-.871.193c-.483-.1-.386-.29-.386-.676-.1-.389-.29-.292-.485-.389s-.482.1-.774-.386c-.388-.486-.292-.582-.388-1.26-.1-.774.388-.874.388-.874a2.2,2.2,0,0,1,.58-.093c.291,0,.389,0,.389.289Zm25.268-22.748a.7.7,0,0,0-.871.673l.193.584a6.53,6.53,0,0,0,1.644-.584c.774-.29-.193-.579-.966-.673Zm17.07,12.349c-.378-.024-.791-.045-1.166-.051.066.949.155,2.336.155,3.535,0,.126,0,.262,0,.394,0,.779-.122,2.484-.213,3.621.205-.007.438-.012.438-.012.323-.006.66-.012.978-.021a20.268,20.268,0,0,0,.264-3.265A19.919,19.919,0,0,0,206.162,206.888ZM200.2,221.973c-.177.308-.346.587-.455.736a.569.569,0,0,0-.107.192h-3.573c.2-.4.389-.814.569-1.232a.075.075,0,0,0-.039-.121c-.1-.045-.207-.1-.31-.147-.056-.038-.11-.038-.126.026-.205.487-.44,1-.674,1.474H153.466a25.216,25.216,0,0,1-1.936-5.278c-.036-.145-.168-.14-.2,0q-.061.292-.114.557a.887.887,0,0,0,.01.464,25.138,25.138,0,0,0,1.655,4.257H146.69q-.281-.405-.541-.822a.328.328,0,0,0-.253-.139l-.31-.027c-.06,0-.17-.022-.076.135a26.659,26.659,0,0,0,6.308,7.147,33.413,33.413,0,0,0,3,2.129,36.962,36.962,0,0,0,16.265,5.13,19.591,19.591,0,0,0,6.776,0,36.937,36.937,0,0,0,16.266-5.13,33.6,33.6,0,0,0,3-2.129,27.041,27.041,0,0,0,6.554-7.489Q202.018,221.84,200.2,221.973Zm-36.426,1.413c-.045.03-.1.148-.148.182a.683.683,0,0,1-1.038-.109c-.008-.02-.014-.048-.023-.073Zm-1.789,0c.008.018.012.038.02.058-.2.11.029.313-.216.717-.383.482-.578.1-.868.386a2.486,2.486,0,0,0-.967.678v.1c-.1,0-.1,0-.1.1-.389.484-.194.484-.1.873a3.313,3.313,0,0,1,.2.965c.093.389-.2.389-.29.777-.2.29.29.386.194.869-.194.391.289.391.383.584.1.095-.093.095.2.191s.1.195.293.584c.289.384.1,0,.579.289.388.193.388-.482.582-.678.195-.291.675-.291,1.26-.579.579-.194.677.384,1.161.288a.563.563,0,0,1,.307.023c.221.407.443.772.66,1.141h-5.613a17.286,17.286,0,0,1-1.937-1.841,25.023,25.023,0,0,1-3.972-5.516Zm-9.874,5.323a26.742,26.742,0,0,1-5.13-5.323h6.2a23.289,23.289,0,0,0,4.16,5.907c.485.485.968.968,1.552,1.451h-3.876A25.826,25.826,0,0,1,152.11,228.71Zm3.774,2.614h3.583a26.526,26.526,0,0,0,6.776,3.972A39.2,39.2,0,0,1,155.884,231.324Zm4.455,0h5.326a14.106,14.106,0,0,0,5.323,4.648A24.566,24.566,0,0,1,160.339,231.324Zm13.844,4.744h-.968a10.737,10.737,0,0,1-6.469-4.219.428.428,0,0,0,.274.055c.483-.19.772.968,1.062,1.067.292.192.873-.1.873-.39v-.191a3.242,3.242,0,0,1,.58-.971.4.4,0,0,0,.1-.1h4.546Zm0-5.324h-3.276a1.3,1.3,0,0,1,.081-.292c.193-.579.289-.383.485-.871s0-.288-.1-.678c-.1-.29-.2-.385-.292-.193a1.243,1.243,0,0,0-.192.584c-.194.485-.29.384-.388.869a3.349,3.349,0,0,0,.031.581h-.64a3.244,3.244,0,0,0,.121-.774,14.512,14.512,0,0,1,.584-1.357c.193-.482.386-.289.1-.871-.292-.675.1-1.356-.1-2.032s-.486-.194-.97-.194c-.483.094-.579-.292-.868-.678s-.2-1.066-.582-1.163c-.485-.1-.582.391-.871.775-.194.289-.581-.1-.967,0-.486.1-.389-.29-.777-.775-.084-.109-.156-.2-.219-.29h8.836Zm12.782-7.358h8.226a25.119,25.119,0,0,1-3.967,5.516,17.231,17.231,0,0,1-1.94,1.841h-5.612c.291-.483.579-.965.871-1.55A24.465,24.465,0,0,0,186.965,223.386Zm-12.2,0H186.48a32.826,32.826,0,0,1-2.324,5.516c-.389.678-.777,1.26-1.16,1.841h-8.229Zm.964,12.681h-.964v-4.744H182.6C180.669,233.936,178.345,235.684,175.732,236.068Zm7.55-4.744h5.324a24.169,24.169,0,0,1-10.551,4.648A14.6,14.6,0,0,0,183.282,231.324ZM182.7,235.3a26.536,26.536,0,0,0,6.779-3.972h3.579A39.1,39.1,0,0,1,182.7,235.3Zm14.133-6.586a19.474,19.474,0,0,1-2.9,2.035h-3.876c.584-.483,1.066-.965,1.551-1.451a23.322,23.322,0,0,0,4.166-5.907h3.895c.1.284.308.561.359.775a2.161,2.161,0,0,0,.851.63A28.4,28.4,0,0,1,196.836,228.71Zm-51.3-22.08a16.965,16.965,0,0,1,.9-2.215,46.364,46.364,0,0,1,2.2-4.158l.483-.827.069-.115.073-.121.138-.015.139-.018.325-.039h.008c.121-.012,2.418-.271,6.195-.454,3.489-.137,6.379-.128,6.407-.128l.7,0h.6l-.023.3-.022.3-.056.686c-.008.085-.67,8.378-.7,11.561.028.03.055.059.084.086.1.2.291.094.776,0,.178-.043.209-.388.209-.388a4.461,4.461,0,0,0-.015-.775,5.958,5.958,0,0,1-.194-.868c-.088-.35.445-.693.768-.9a42.509,42.509,0,0,1,.624-6.93c.46-2.608,2.337-3.277,3.259-3.265.638-.008,3.185-.032,6.291-.017v-.6h.964a.111.111,0,0,1,0,.1c-.06.178-.084.394-.295.51.792.005,1.614.013,2.443.024-.006-.018-.013-.034-.02-.052a1.353,1.353,0,0,0-.595-.578h3.008a1.736,1.736,0,0,0-.07.667c2.857.048,7.412.138,8.42.236,3,.3,3.648,1.977,3.769,2.956a43.339,43.339,0,0,1,.465,6.333l-.03.6-.014.27-.012.261h-4.707c.018.512.029,1.027.029,1.545H176.595v.007c0,.164,0,.32,0,.478h11.527v.2c0,.377-.01.751-.02,1.125h.583c.009-.374.019-.747.019-1.124v-.2h1.236a3.439,3.439,0,0,1,.081.584c0,.209.225.473.492.733l1.731,0,.281,0h.284l0,.285,0,.279,0,.65c0,.022,0,.055,0,.095.419.039,1.366-.11,1.419-.062.014-.972.024-2.02.024-3.078,0-2.384-.257-7.581-.257-7.581s.019-.886.019-.886a3.259,3.259,0,0,1,.937-1.968,4.007,4.007,0,0,1,2.95-1.012c1.063.029,2.367.128,3.749.235l1.358.1a27.655,27.655,0,0,0-5.871-6.375,36.772,36.772,0,0,0-21.4-7.454h-2.517a36.774,36.774,0,0,0-21.4,7.454,26.121,26.121,0,0,0-7.214,8.806C144.76,202.8,144.935,203.941,145.532,206.63Zm43.174,3.975c-.012-.5-.032-1.057-.057-1.553a1.4,1.4,0,0,1,.826.779c.08.231.352.416.341.774Zm-3.874-12.582a1.4,1.4,0,0,1-.511-.291H186c.063.173.22.616.281.794C185.894,198.562,185.316,198.163,184.832,198.022Zm1.548-.774a28.816,28.816,0,0,0-1.838-3.875A17.49,17.49,0,0,0,183,190.761h5.226a26.916,26.916,0,0,1,3,2.713,20.407,20.407,0,0,1,1.671,1.895c-1.167-.284-1.122.388-1.381.912-.216.425.254.746.746.968Zm6.487,1.061c-.582,0,0,.2,0,.681s-.775.291-1.451.19c-.774-.1-.584-.872-1.067-1.45h2.738C193.263,197.979,193.21,198.242,192.867,198.309Zm3.1-.093c-.221.183-.354.226-.478.208-.127-.233-.259-.467-.393-.693h1.024C195.976,197.994,196.461,197.721,195.966,198.216Zm4.259.291c-.386.29-.481.384-1.16,0s0,.384-.678.384c-.675.1-.584-.384-.584-1.063v-.1h3.032C200.611,197.873,200.479,198.317,200.224,198.507Zm-3.389-5.033a27.282,27.282,0,0,1,3.775,3.774h-2.986a4.206,4.206,0,0,0-.4-.292c-.389-.292.775-1.067.193-1.357-.388-.193-.388.391-.774.774-.313.394,0,.531-.165.875H194.8c-.015-.031-.036-.061-.053-.094a1.284,1.284,0,0,0,.152-.49c0-.435-.006-.631-1.113-1.014a19.847,19.847,0,0,0-2.179-2.567,30.461,30.461,0,0,0-2.517-2.322h3.675A40.91,40.91,0,0,1,196.836,193.474Zm-5.036-3.2h-3.385a23.2,23.2,0,0,0-6.293-3.391A34.663,34.663,0,0,1,191.8,190.279Zm-4.258,0h-5.033a12.081,12.081,0,0,0-5.13-3.972A22.614,22.614,0,0,1,187.541,190.279Zm-12.774-3.972c2.611.1,5.031,1.549,7.062,3.972h-7.062Zm0,4.455h7.547c.582.869,1.257,1.837,1.841,2.807a32.4,32.4,0,0,1,1.643,3.68h-1.963a2.8,2.8,0,0,0-.746-.584c-.775-.48-.775-.673-1.45-.384-.678.384-.2.676-.585.579-.35,0-.346.152-.464.389h-5.823Zm-10.748,2.418c-.291-.384-.485-.289-1.455-.1a3.863,3.863,0,0,1-2.569-.77,2.854,2.854,0,0,1-.49-.538c.292-.237.927-.775,1.222-1.014h5.322a17.364,17.364,0,0,0-1.645,2.611c-.076.129-.147.258-.217.391A3.254,3.254,0,0,0,164.019,193.179Zm10.164,4.069h-1.258a4.485,4.485,0,0,1-1.745-1.453c-.676-.68-1.45-.29-2.517-.584s-.675.294-1.453.2c-.679-.1-.386-.582-.868-.774-.486-.094-.1.483-.389.579-.193.2-.775-.29-1.257-.29-.15,0-.257-.2-.341-.47.145-.3.288-.592.433-.883.582-.97,1.259-1.938,1.841-2.807h7.551Zm0-10.941v3.972h-7.066C169.148,187.856,171.57,186.4,174.183,186.307Zm-7.744,3.972H161.4a22.6,22.6,0,0,1,10.166-3.972A12.111,12.111,0,0,0,166.439,190.279Zm-7.272-.963a35.459,35.459,0,0,1,7.658-2.427,23.2,23.2,0,0,0-6.293,3.391h-1.91C158.465,189.989,158.909,189.577,159.167,189.316Zm-.033,2.054c-.069-.086-.275-.513-.369-.614l1.09.006c-.109.094-.216.191-.326.285Z" transform="translate(-144.603 -185.629)" fill="#aeb0b3"/>
            </g>
          </g>
        </g>
      </g>
    </g>
  </g>
</svg>
