<svg id="Group_1080" data-name="Group 1080" xmlns="http://www.w3.org/2000/svg" width="114.324" height="89.07" viewBox="0 0 114.324 89.07">
  <g id="Group_1055" data-name="Group 1055">
    <g id="Group_1051" data-name="Group 1051" transform="translate(0 0)">
      <path id="Path_5321" data-name="Path 5321" d="M820.665,164.733c-8.992,22.007-4.376,42.919,16,55.536a85.892,85.892,0,0,0,8.5,4.56c7.872,3.721,15.834,6.474,21.772,9.831a23.116,23.116,0,0,1,7.522,6.161l.424-.3a23.587,23.587,0,0,0-7.7-6.293c-5.989-3.366-13.952-6.1-21.833-9.8a85.314,85.314,0,0,1-8.47-4.519c-20.22-12.455-24.875-33.191-15.955-55.094Z" transform="translate(-810.618 -151.939)" fill="#4a91f2"/>
      <g id="Group_1049" data-name="Group 1049" transform="translate(6.459 8.963)">
        <path id="Path_5322" data-name="Path 5322" d="M898.539,288.314a37.259,37.259,0,0,1,3.417,2.463c4.409,3.685,4.548,6.21,4.024,8.393C902.94,296.816,898.913,295.886,898.539,288.314Z" transform="translate(-863.137 -230.102)" fill="#4a91f2" opacity="0.386"/>
        <path id="Path_5323" data-name="Path 5323" d="M882.028,281.533c3.644,2.72,7.744,6.139,6.92,10.6-.451-.294-1.547-.928-2.685-1.77a10.622,10.622,0,0,1-2.935-3.007A11.168,11.168,0,0,1,882.028,281.533Z" transform="translate(-853.887 -226.305)" fill="#4a91f2" opacity="0.386"/>
        <path id="Path_5324" data-name="Path 5324" d="M866.736,273.683c3.649,3.354,6.623,6.786,5.9,10.674C869.031,281.976,865.771,279.356,866.736,273.683Z" transform="translate(-845.232 -221.909)" fill="#4a91f2" opacity="0.386"/>
        <path id="Path_5325" data-name="Path 5325" d="M853.079,264.194c3.337,4.2,5.114,7.681,4.346,10.907C853.536,272.171,851.415,268.738,853.079,264.194Z" transform="translate(-837.361 -216.596)" fill="#4a91f2" opacity="0.386"/>
        <path id="Path_5326" data-name="Path 5326" d="M841.591,252.7c1.678,3.193,3.487,7.747,2.307,11.131C839.773,259.6,839.628,255.724,841.591,252.7Z" transform="translate(-830.563 -210.159)" fill="#4a91f2" opacity="0.386"/>
        <path id="Path_5327" data-name="Path 5327" d="M832.693,239.027c.913,3.4,1.7,8.052.035,11.176C830.28,246.442,829.516,242.161,832.693,239.027Z" transform="translate(-825.089 -202.503)" fill="#4a91f2" opacity="0.386"/>
        <path id="Path_5328" data-name="Path 5328" d="M826.768,223.4c.372,3.284.095,8.184-2.054,10.959C822.6,228.437,824.512,224.9,826.768,223.4Z" transform="translate(-821.285 -193.755)" fill="#4a91f2" opacity="0.386"/>
        <path id="Path_5329" data-name="Path 5329" d="M823.689,206.807a21.962,21.962,0,0,1-.4,2.956c-.516,2.63-1.509,5.535-3.45,7.421C818.886,211,821.183,207.913,823.689,206.807Z" transform="translate(-818.947 -184.462)" fill="#4a91f2" opacity="0.386"/>
        <path id="Path_5330" data-name="Path 5330" d="M823.424,189.729c-.406,2.3-2.01,7.061-5.336,9.635C818.228,193.063,820.982,190.387,823.424,189.729Z" transform="translate(-818.088 -174.899)" fill="#4a91f2" opacity="0.386"/>
        <path id="Path_5331" data-name="Path 5331" d="M826.034,172.664a16.25,16.25,0,0,1-6.483,8.837C820.365,177.6,822.04,173.2,826.034,172.664Z" transform="translate(-818.907 -165.343)" fill="#4a91f2" opacity="0.386"/>
        <path id="Path_5332" data-name="Path 5332" d="M831.374,156.027a15.849,15.849,0,0,1-7.328,8.039C824.739,162.176,826.729,156.089,831.374,156.027Z" transform="translate(-821.424 -156.027)" fill="#4a91f2" opacity="0.386"/>
      </g>
      <path id="Path_5333" data-name="Path 5333" d="M834.066,135.659c-.991,3.136-3.585,10.007-6.388,11.7C827.472,144.307,829.112,139.782,834.066,135.659Z" transform="translate(-816.989 -135.659)" fill="#4a91f2" opacity="0.5"/>
      <g id="Group_1050" data-name="Group 1050" transform="translate(0 3.988)">
        <path id="Path_5334" data-name="Path 5334" d="M882.819,317.717a30.28,30.28,0,0,0,4.341.882c5.686.648,7.618-1.148,8.8-2.935-.722-.118-4.995-1.437-7.653-.8A14.868,14.868,0,0,0,882.819,317.717Z" transform="translate(-847.875 -239.897)" fill="#4a91f2"/>
        <path id="Path_5335" data-name="Path 5335" d="M862.761,308.019a27.314,27.314,0,0,0,4.363,1.3,13.685,13.685,0,0,0,5.7.014,5.63,5.63,0,0,0,3.343-2.394c-.391-.068-1.622-.447-3.086-.763a13.581,13.581,0,0,0-4.5-.379A17.049,17.049,0,0,0,862.761,308.019Z" transform="translate(-836.643 -234.874)" fill="#4a91f2"/>
        <path id="Path_5336" data-name="Path 5336" d="M843.141,296.042a24.7,24.7,0,0,0,4.214,1.99c5.4,1.879,7.83.462,9.341-1.2-.788-.2-4.84-1.959-7.38-1.96A20.4,20.4,0,0,0,843.141,296.042Z" transform="translate(-825.657 -228.798)" fill="#4a91f2"/>
        <path id="Path_5337" data-name="Path 5337" d="M825.565,280.075a22.026,22.026,0,0,0,3.739,2.916c4.783,2.9,7.593,2.088,9.465.653C835.3,282.139,834.09,279.711,825.565,280.075Z" transform="translate(-815.815 -220.493)" fill="#4a91f2"/>
        <path id="Path_5338" data-name="Path 5338" d="M812.371,258.648c2.593,4.345,7.1,8.851,11.822,6.829C820.448,262.709,820.656,260.772,812.371,258.648Z" transform="translate(-808.427 -208.515)" fill="#4a91f2"/>
        <path id="Path_5339" data-name="Path 5339" d="M805.128,235.012a21.756,21.756,0,0,0,1.683,4.162c2.573,4.753,5.308,5.64,7.741,5.378C811.749,241.1,812.64,239.263,805.128,235.012Z" transform="translate(-804.372 -195.28)" fill="#4a91f2"/>
        <path id="Path_5340" data-name="Path 5340" d="M803.409,210.817c.354,4.882,1.892,10.454,6.718,11.355C808.4,218.328,809.6,216.724,803.409,210.817Z" transform="translate(-803.409 -181.732)" fill="#4a91f2"/>
        <path id="Path_5341" data-name="Path 5341" d="M806.3,187.291c-.641,4.77-.353,10.236,3.958,12.342C809.528,195.416,810.823,194.028,806.3,187.291Z" transform="translate(-804.881 -168.558)" fill="#4a91f2"/>
        <path id="Path_5342" data-name="Path 5342" d="M812.284,165.189c-1.438,4.452-2.135,9.648,1.452,12.651C813.916,173.864,815.4,172.487,812.284,165.189Z" transform="translate(-807.724 -156.182)" fill="#4a91f2"/>
        <path id="Path_5343" data-name="Path 5343" d="M821.088,144.721c-2.077,4.1-3.552,8.9-.718,12.536C821.214,153.326,822.908,152.59,821.088,144.721Z" transform="translate(-812.028 -144.721)" fill="#4a91f2"/>
      </g>
    </g>
    <g id="Group_1054" data-name="Group 1054" transform="translate(51.162 0.286)">
      <path id="Path_5344" data-name="Path 5344" d="M973.2,164.975c9.806,23.827,4.242,46.12-24.192,59.66-2.818,1.341-5.593,2.533-8.229,3.653-10.01,4.245-17.038,7.113-21.1,12.481l.424.3c4.233-5.611,12.646-8.852,20.866-12.36,2.635-1.127,5.414-2.328,8.24-3.681,28.208-13.516,34.356-35.838,24.236-60.185Z" transform="translate(-919.674 -152.289)" fill="#4a91f2"/>
      <g id="Group_1052" data-name="Group 1052" transform="translate(15.531 5.032)">
        <path id="Path_5345" data-name="Path 5345" d="M968.1,318.105a30.523,30.523,0,0,1-4.332.871,14.112,14.112,0,0,1-5.56-.366,5.812,5.812,0,0,1-3.237-2.569c.4-.064,1.646-.433,3.132-.693a11.956,11.956,0,0,1,4.516-.109A14.779,14.779,0,0,1,968.1,318.105Z" transform="translate(-954.968 -241.437)" fill="#4a91f2"/>
        <path id="Path_5346" data-name="Path 5346" d="M985.756,309.441c-3.078,1.1-6.566,1.921-9.812,1.147a5.815,5.815,0,0,1-3.452-2.378c.528-.122,1.748-.482,3.156-.766C978.144,306.944,981.178,306.5,985.756,309.441Z" transform="translate(-964.781 -236.965)" fill="#4a91f2"/>
        <path id="Path_5347" data-name="Path 5347" d="M1003.27,299.125c-4.219,2.231-10.162,3.857-13.314.306a38.8,38.8,0,0,1,5.156-1.5A14.1,14.1,0,0,1,1003.27,299.125Z" transform="translate(-974.56 -231.736)" fill="#4a91f2"/>
        <path id="Path_5348" data-name="Path 5348" d="M1019.892,285.89c-3.633,2.975-9.49,5.478-13.054,2.541C1009.331,287.255,1014.039,284.461,1019.892,285.89Z" transform="translate(-984.013 -224.877)" fill="#4a91f2"/>
        <path id="Path_5349" data-name="Path 5349" d="M1034.508,268.561c-2.827,3.738-8.056,7.358-12.1,5.3C1024.557,272.305,1028.965,268.521,1034.508,268.561Z" transform="translate(-992.73 -215.396)" fill="#4a91f2"/>
        <path id="Path_5350" data-name="Path 5350" d="M1045.846,248.209c-1.646,4.149-5.929,8.8-10.252,7.963C1037.271,254.253,1040.874,249.327,1045.846,248.209Z" transform="translate(-1000.115 -204)" fill="#4a91f2"/>
        <path id="Path_5351" data-name="Path 5351" d="M1053.125,226.984c-.49,3.264-3.2,9.356-7.882,9.878C1046.426,234.485,1048.748,228.965,1053.125,226.984Z" transform="translate(-1005.518 -192.115)" fill="#4a91f2"/>
        <path id="Path_5352" data-name="Path 5352" d="M1056.283,205.662c.206,4.15-1.577,9.5-5.414,11.1C1051.431,214.534,1052.512,208.264,1056.283,205.662Z" transform="translate(-1008.668 -180.176)" fill="#4a91f2"/>
        <path id="Path_5353" data-name="Path 5353" d="M1055.634,185.108c.932,3.775.315,9.1-3,11.672C1052.747,194.778,1052.39,188.235,1055.634,185.108Z" transform="translate(-1009.658 -168.666)" fill="#4a91f2"/>
        <path id="Path_5354" data-name="Path 5354" d="M1050.749,165.758c1.44,3.232,1.835,8.311-.838,11.738C1049.538,174.86,1048.155,169.081,1050.749,165.758Z" transform="translate(-1007.738 -157.831)" fill="#4a91f2"/>
        <path id="Path_5355" data-name="Path 5355" d="M1042.473,147.744a12.115,12.115,0,0,1,1.032,11.477C1042.735,156.7,1040.376,151.3,1042.473,147.744Z" transform="translate(-1003.492 -147.744)" fill="#4a91f2"/>
      </g>
      <path id="Path_5356" data-name="Path 5356" d="M1025.472,136.309c4.862,3.169,7.13,9.245,6.638,11.472C1028.257,144.6,1026.2,138.02,1025.472,136.309Z" transform="translate(-978.916 -136.309)" fill="#4a91f2" opacity="0.5"/>
      <g id="Group_1053" data-name="Group 1053" transform="translate(14.912 8.407)">
        <path id="Path_5357" data-name="Path 5357" d="M961.164,287.942c-4.163,2.8-8.554,6.084-7.422,10.851C956.8,296.418,960.816,295.509,961.164,287.942Z" transform="translate(-953.561 -229.624)" fill="#4a91f2" opacity="0.5"/>
        <path id="Path_5358" data-name="Path 5358" d="M980.174,280.033c-4.2,3.306-7.661,6.3-6.8,10.725.315-.236,1.426-.873,2.609-1.749C978.535,287.119,980.294,285.107,980.174,280.033Z" transform="translate(-964.581 -225.195)" fill="#4a91f2" opacity="0.5"/>
        <path id="Path_5359" data-name="Path 5359" d="M997.965,270.706c-3.571,3.743-6.468,6.7-5.519,10.96.3-.245,1.338-.929,2.422-1.865C997.191,277.8,998.755,275.527,997.965,270.706Z" transform="translate(-975.233 -219.972)" fill="#4a91f2" opacity="0.5"/>
        <path id="Path_5360" data-name="Path 5360" d="M1013.745,259.283c-3.057,4.9-4.733,7.6-3.526,11.324C1012.21,268.461,1016.26,265.948,1013.745,259.283Z" transform="translate(-985.066 -213.576)" fill="#4a91f2" opacity="0.5"/>
        <path id="Path_5361" data-name="Path 5361" d="M1026.442,245.384c-1.966,5.841-2.587,8.41-.975,11.555.1-.157.329-.466.628-.877a17.843,17.843,0,0,0,.973-1.543C1028.6,251.767,1028.923,249.088,1026.442,245.384Z" transform="translate(-993.31 -205.793)" fill="#4a91f2" opacity="0.5"/>
        <path id="Path_5362" data-name="Path 5362" d="M1034.832,228.909c-.266,3.017-1.037,7.5.956,10.568a10.116,10.116,0,0,0,.675.931c.148-.432,1.873-4,1.225-6.7A10.467,10.467,0,0,0,1034.832,228.909Z" transform="translate(-998.862 -196.568)" fill="#4a91f2" opacity="0.5"/>
        <path id="Path_5363" data-name="Path 5363" d="M1037.968,210.931c.493,5.178.886,8.464,3.891,10.947.018-.177.08-.543.159-1.028.042-.242.07-.517.1-.812.015-.147.031-.3.048-.458s.021-.32.029-.485a8.876,8.876,0,0,0-.56-3.962A10.916,10.916,0,0,0,1037.968,210.931Z" transform="translate(-1000.825 -186.501)" fill="#4a91f2" opacity="0.5"/>
        <path id="Path_5364" data-name="Path 5364" d="M1036.841,192.259c.328,1.2,1.406,5.8,3.433,8.206a6.476,6.476,0,0,0,.623.655,9.453,9.453,0,0,0,1.742,1.244C1042.323,199.617,1043.02,195.5,1036.841,192.259Z" transform="translate(-1000.194 -176.046)" fill="#4a91f2" opacity="0.5"/>
        <path id="Path_5365" data-name="Path 5365" d="M1032.318,173.558c1.872,4.282,3.415,7.67,7.276,9.152C1038.77,180,1038.817,176.089,1032.318,173.558Z" transform="translate(-997.661 -165.574)" fill="#4a91f2" opacity="0.5"/>
        <path id="Path_5366" data-name="Path 5366" d="M1024.906,155.414c2.481,4.211,4.451,7.17,8.36,8.167C1032.023,160.829,1031.438,157.234,1024.906,155.414Z" transform="translate(-993.511 -155.414)" fill="#4a91f2" opacity="0.5"/>
      </g>
    </g>
  </g>
</svg>
