<svg id="Group_1079" data-name="Group 1079" xmlns="http://www.w3.org/2000/svg" width="101.507" height="79.085" viewBox="0 0 101.507 79.085">
  <g id="Group_1051" data-name="Group 1051">
    <path id="Path_5321" data-name="Path 5321" d="M820.174,164.733c-7.984,19.54-3.885,38.107,14.21,49.31a76.267,76.267,0,0,0,7.548,4.049c6.99,3.3,14.059,5.749,19.331,8.729a20.524,20.524,0,0,1,6.679,5.47l.376-.27a20.943,20.943,0,0,0-6.839-5.587c-5.317-2.989-12.388-5.412-19.386-8.7a75.743,75.743,0,0,1-7.521-4.013c-17.953-11.059-22.086-29.47-14.166-48.918Z" transform="translate(-811.253 -153.373)" fill="#4a91f2"/>
    <g id="Group_1049" data-name="Group 1049" transform="translate(5.735 7.958)">
      <path id="Path_5322" data-name="Path 5322" d="M898.539,288.314a33.089,33.089,0,0,1,3.034,2.187c3.915,3.271,4.038,5.514,3.573,7.452C902.447,295.863,898.871,295.037,898.539,288.314Z" transform="translate(-867.106 -236.628)" fill="#4a91f2" opacity="0.386"/>
      <path id="Path_5323" data-name="Path 5323" d="M882.027,281.533c3.235,2.415,6.876,5.451,6.144,9.415-.4-.261-1.373-.824-2.384-1.572a9.432,9.432,0,0,1-2.606-2.67A9.917,9.917,0,0,1,882.027,281.533Z" transform="translate(-857.041 -232.496)" fill="#4a91f2" opacity="0.386"/>
      <path id="Path_5324" data-name="Path 5324" d="M866.716,273.683c3.24,2.978,5.88,6.025,5.237,9.477C868.754,281.046,865.859,278.72,866.716,273.683Z" transform="translate(-847.624 -227.713)" fill="#4a91f2" opacity="0.386"/>
      <path id="Path_5325" data-name="Path 5325" d="M853.015,264.194c2.963,3.728,4.541,6.82,3.859,9.685C853.421,271.276,851.537,268.229,853.015,264.194Z" transform="translate(-839.059 -221.932)" fill="#4a91f2" opacity="0.386"/>
      <path id="Path_5326" data-name="Path 5326" d="M841.454,252.7c1.49,2.835,3.1,6.878,2.048,9.883C839.84,258.823,839.711,255.385,841.454,252.7Z" transform="translate(-831.662 -214.928)" fill="#4a91f2" opacity="0.386"/>
      <path id="Path_5327" data-name="Path 5327" d="M832.457,239.027c.811,3.021,1.513,7.15.031,9.923C830.315,245.611,829.637,241.81,832.457,239.027Z" transform="translate(-825.706 -206.598)" fill="#4a91f2" opacity="0.386"/>
      <path id="Path_5328" data-name="Path 5328" d="M826.435,223.4c.33,2.916.084,7.266-1.823,9.73C822.73,227.873,824.432,224.732,826.435,223.4Z" transform="translate(-821.566 -197.079)" fill="#4a91f2" opacity="0.386"/>
      <path id="Path_5329" data-name="Path 5329" d="M823.233,206.807a19.5,19.5,0,0,1-.351,2.625,12.612,12.612,0,0,1-3.063,6.589C818.968,210.534,821.008,207.789,823.233,206.807Z" transform="translate(-819.023 -186.967)" fill="#4a91f2" opacity="0.386"/>
      <path id="Path_5330" data-name="Path 5330" d="M822.826,189.729c-.361,2.042-1.785,6.27-4.738,8.555C818.212,192.689,820.657,190.314,822.826,189.729Z" transform="translate(-818.088 -176.561)" fill="#4a91f2" opacity="0.386"/>
      <path id="Path_5331" data-name="Path 5331" d="M825.307,172.664a14.428,14.428,0,0,1-5.756,7.847C820.273,177.05,821.761,173.138,825.307,172.664Z" transform="translate(-818.979 -166.164)" fill="#4a91f2" opacity="0.386"/>
      <path id="Path_5332" data-name="Path 5332" d="M830.552,156.027a14.072,14.072,0,0,1-6.506,7.138C824.661,161.486,826.428,156.082,830.552,156.027Z" transform="translate(-821.718 -156.027)" fill="#4a91f2" opacity="0.386"/>
    </g>
    <path id="Path_5333" data-name="Path 5333" d="M833.348,135.659c-.879,2.784-3.183,8.885-5.672,10.392C827.493,143.338,828.95,139.32,833.348,135.659Z" transform="translate(-818.186 -135.659)" fill="#4a91f2" opacity="0.5"/>
    <g id="Group_1050" data-name="Group 1050" transform="translate(0 3.541)">
      <path id="Path_5334" data-name="Path 5334" d="M882.819,317.377a26.881,26.881,0,0,0,3.854.783c5.049.576,6.764-1.02,7.818-2.606-.641-.105-4.435-1.276-6.8-.71A13.2,13.2,0,0,0,882.819,317.377Z" transform="translate(-851.792 -248.281)" fill="#4a91f2"/>
      <path id="Path_5335" data-name="Path 5335" d="M862.761,307.761a24.255,24.255,0,0,0,3.874,1.15,12.151,12.151,0,0,0,5.064.012,5,5,0,0,0,2.968-2.126c-.347-.06-1.441-.4-2.74-.678a12.058,12.058,0,0,0-4-.336A15.138,15.138,0,0,0,862.761,307.761Z" transform="translate(-839.571 -242.817)" fill="#4a91f2"/>
      <path id="Path_5336" data-name="Path 5336" d="M843.141,295.911a21.93,21.93,0,0,0,3.742,1.767c4.8,1.668,6.952.41,8.293-1.067-.7-.178-4.3-1.739-6.552-1.741A18.112,18.112,0,0,0,843.141,295.911Z" transform="translate(-827.617 -236.205)" fill="#4a91f2"/>
      <path id="Path_5337" data-name="Path 5337" d="M825.565,280.071a19.556,19.556,0,0,0,3.32,2.589c4.247,2.579,6.742,1.854,8.4.58C834.206,281.9,833.134,279.748,825.565,280.071Z" transform="translate(-816.908 -227.168)" fill="#4a91f2"/>
      <path id="Path_5338" data-name="Path 5338" d="M812.371,258.648c2.3,3.858,6.3,7.859,10.5,6.063C819.543,262.254,819.727,260.534,812.371,258.648Z" transform="translate(-808.869 -214.135)" fill="#4a91f2"/>
      <path id="Path_5339" data-name="Path 5339" d="M805.128,235.012a19.318,19.318,0,0,0,1.494,3.7c2.285,4.221,4.713,5.008,6.873,4.775C811.007,240.413,811.8,238.786,805.128,235.012Z" transform="translate(-804.456 -199.734)" fill="#4a91f2"/>
      <path id="Path_5340" data-name="Path 5340" d="M803.409,210.817c.315,4.335,1.68,9.282,5.965,10.082C807.844,217.486,808.9,216.062,803.409,210.817Z" transform="translate(-803.409 -184.992)" fill="#4a91f2"/>
      <path id="Path_5341" data-name="Path 5341" d="M806.267,187.291c-.569,4.235-.314,9.089,3.514,10.958C809.137,194.505,810.287,193.273,806.267,187.291Z" transform="translate(-805.011 -170.658)" fill="#4a91f2"/>
      <path id="Path_5342" data-name="Path 5342" d="M812.153,165.189c-1.277,3.953-1.9,8.566,1.289,11.233C813.6,172.892,814.918,171.669,812.153,165.189Z" transform="translate(-808.104 -157.192)" fill="#4a91f2"/>
      <path id="Path_5343" data-name="Path 5343" d="M820.832,144.721c-1.844,3.639-3.153,7.9-.637,11.131C820.943,152.361,822.448,151.708,820.832,144.721Z" transform="translate(-812.787 -144.721)" fill="#4a91f2"/>
    </g>
  </g>
  <g id="Group_1054" data-name="Group 1054" transform="translate(45.426 0.254)">
    <path id="Path_5344" data-name="Path 5344" d="M967.2,164.961c8.707,21.156,3.766,40.949-21.48,52.972-2.5,1.191-4.966,2.249-7.307,3.243-8.888,3.769-15.128,6.315-18.737,11.082l.377.27c3.759-4.982,11.228-7.859,18.526-10.974,2.34-1,4.807-2.067,7.316-3.268,25.046-12,30.5-31.82,21.519-53.438Z" transform="translate(-919.674 -153.697)" fill="#4a91f2"/>
    <g id="Group_1052" data-name="Group 1052" transform="translate(13.79 4.468)">
      <path id="Path_5345" data-name="Path 5345" d="M966.625,317.764a27.1,27.1,0,0,1-3.847.773,12.53,12.53,0,0,1-4.937-.325,5.16,5.16,0,0,1-2.874-2.281c.351-.057,1.462-.384,2.781-.615a10.616,10.616,0,0,1,4.01-.1A13.123,13.123,0,0,1,966.625,317.764Z" transform="translate(-954.968 -249.691)" fill="#4a91f2"/>
      <path id="Path_5346" data-name="Path 5346" d="M984.269,309.177c-2.733.976-5.83,1.706-8.712,1.018a5.163,5.163,0,0,1-3.065-2.111c.469-.108,1.552-.428,2.8-.68C977.511,306.959,980.2,306.565,984.269,309.177Z" transform="translate(-965.645 -244.826)" fill="#4a91f2"/>
      <path id="Path_5347" data-name="Path 5347" d="M1001.777,298.969c-3.746,1.981-9.023,3.425-11.821.272a34.456,34.456,0,0,1,4.578-1.333A12.518,12.518,0,0,1,1001.777,298.969Z" transform="translate(-976.286 -239.136)" fill="#4a91f2"/>
      <path id="Path_5348" data-name="Path 5348" d="M1018.428,285.845c-3.226,2.641-8.426,4.864-11.591,2.256C1009.052,287.058,1013.232,284.577,1018.428,285.845Z" transform="translate(-986.572 -231.672)" fill="#4a91f2"/>
      <path id="Path_5349" data-name="Path 5349" d="M1033.151,268.561c-2.51,3.319-7.153,6.534-10.745,4.7C1024.316,271.886,1028.23,268.525,1033.151,268.561Z" transform="translate(-996.057 -221.356)" fill="#4a91f2"/>
      <path id="Path_5350" data-name="Path 5350" d="M1044.7,248.209c-1.462,3.684-5.264,7.815-9.1,7.071C1037.083,253.576,1040.282,249.2,1044.7,248.209Z" transform="translate(-1004.092 -208.956)" fill="#4a91f2"/>
      <path id="Path_5351" data-name="Path 5351" d="M1052.242,226.984c-.435,2.9-2.839,8.307-7,8.771C1046.293,233.644,1048.355,228.743,1052.242,226.984Z" transform="translate(-1009.971 -196.024)" fill="#4a91f2"/>
      <path id="Path_5352" data-name="Path 5352" d="M1055.676,205.662c.183,3.684-1.4,8.434-4.807,9.855C1051.368,213.539,1052.328,207.972,1055.676,205.662Z" transform="translate(-1013.399 -183.033)" fill="#4a91f2"/>
      <path id="Path_5353" data-name="Path 5353" d="M1055.3,185.108c.828,3.352.279,8.083-2.662,10.363C1052.735,193.694,1052.418,187.884,1055.3,185.108Z" transform="translate(-1014.476 -170.509)" fill="#4a91f2"/>
      <path id="Path_5354" data-name="Path 5354" d="M1050.577,165.758c1.279,2.869,1.629,7.379-.744,10.422C1049.5,173.839,1048.273,168.709,1050.577,165.758Z" transform="translate(-1012.388 -158.72)" fill="#4a91f2"/>
      <path id="Path_5355" data-name="Path 5355" d="M1042.378,147.744a10.757,10.757,0,0,1,.917,10.191C1042.611,155.7,1040.516,150.9,1042.378,147.744Z" transform="translate(-1007.767 -147.744)" fill="#4a91f2"/>
    </g>
    <path id="Path_5356" data-name="Path 5356" d="M1025.472,136.309c4.317,2.814,6.331,8.209,5.894,10.185C1027.944,143.674,1026.116,137.828,1025.472,136.309Z" transform="translate(-984.135 -136.309)" fill="#4a91f2" opacity="0.5"/>
    <g id="Group_1053" data-name="Group 1053" transform="translate(13.24 7.465)">
      <path id="Path_5357" data-name="Path 5357" d="M960.312,287.942c-3.7,2.49-7.6,5.4-6.59,9.635C956.434,295.468,960,294.661,960.312,287.942Z" transform="translate(-953.561 -236.162)" fill="#4a91f2" opacity="0.5"/>
      <path id="Path_5358" data-name="Path 5358" d="M979.4,280.033c-3.726,2.935-6.8,5.59-6.039,9.522.28-.209,1.266-.775,2.317-1.553C977.942,286.325,979.5,284.538,979.4,280.033Z" transform="translate(-965.552 -231.343)" fill="#4a91f2" opacity="0.5"/>
      <path id="Path_5359" data-name="Path 5359" d="M997.326,270.706c-3.171,3.323-5.743,5.948-4.9,9.731.263-.217,1.188-.825,2.151-1.656C996.638,277.006,998.027,274.986,997.326,270.706Z" transform="translate(-977.142 -225.66)" fill="#4a91f2" opacity="0.5"/>
      <path id="Path_5360" data-name="Path 5360" d="M1013.305,259.283c-2.715,4.348-4.2,6.745-3.131,10.054C1011.943,267.432,1015.539,265.2,1013.305,259.283Z" transform="translate(-987.842 -218.7)" fill="#4a91f2" opacity="0.5"/>
      <path id="Path_5361" data-name="Path 5361" d="M1026.229,245.384c-1.746,5.186-2.3,7.467-.865,10.259.086-.139.292-.413.558-.779a15.847,15.847,0,0,0,.864-1.37C1028.149,251.051,1028.432,248.673,1026.229,245.384Z" transform="translate(-996.812 -210.232)" fill="#4a91f2" opacity="0.5"/>
      <path id="Path_5362" data-name="Path 5362" d="M1034.79,228.909c-.236,2.679-.921,6.659.849,9.383a8.978,8.978,0,0,0,.6.826c.131-.384,1.663-3.555,1.088-5.947A9.3,9.3,0,0,0,1034.79,228.909Z" transform="translate(-1002.853 -200.194)" fill="#4a91f2" opacity="0.5"/>
      <path id="Path_5363" data-name="Path 5363" d="M1037.968,210.931c.438,4.6.786,7.515,3.455,9.72.016-.157.071-.482.142-.913.037-.214.062-.459.093-.721.014-.131.028-.267.043-.406s.018-.284.026-.431a7.88,7.88,0,0,0-.5-3.518A9.691,9.691,0,0,0,1037.968,210.931Z" transform="translate(-1004.989 -189.24)" fill="#4a91f2" opacity="0.5"/>
      <path id="Path_5364" data-name="Path 5364" d="M1036.841,192.259c.292,1.064,1.248,5.152,3.048,7.286a5.747,5.747,0,0,0,.553.581,8.393,8.393,0,0,0,1.547,1.1C1041.709,198.792,1042.327,195.133,1036.841,192.259Z" transform="translate(-1004.302 -177.863)" fill="#4a91f2" opacity="0.5"/>
      <path id="Path_5365" data-name="Path 5365" d="M1032.318,173.558c1.662,3.8,3.032,6.81,6.46,8.126C1038.046,179.275,1038.088,175.8,1032.318,173.558Z" transform="translate(-1001.547 -166.469)" fill="#4a91f2" opacity="0.5"/>
      <path id="Path_5366" data-name="Path 5366" d="M1024.906,155.414c2.2,3.739,3.952,6.366,7.423,7.251C1031.225,160.222,1030.705,157.03,1024.906,155.414Z" transform="translate(-997.031 -155.414)" fill="#4a91f2" opacity="0.5"/>
    </g>
  </g>
</svg>
